HIERARCHY
ROOT Hips
{
    OFFSET 0.000000 0.000000 0.000000
    CHANNELS 6 Xposition Yposition Zposition Zrotation Xrotation Yrotation
        JOINT Chest
        {
            OFFSET -0.000000 28.502190 -0.000000
            CHANNELS 3 Zrotation Xrotation Yrotation
            JOINT Neck
            {
                OFFSET -0.000000 21.060717 0.000000
                CHANNELS 3 Zrotation Xrotation Yrotation
                JOINT Head
                {
                    OFFSET -0.000000 9.900002 0.000000
                    CHANNELS 3 Zrotation Xrotation Yrotation
                    End Site
                    {
                        OFFSET -0.000000 15.300010 0.000000
                    }
                }
            }
            JOINT LeftCollar
            {
                OFFSET -0.000000 21.060717 0.000000
                CHANNELS 3 Zrotation Xrotation Yrotation
                JOINT LeftShoulder
                {
                    OFFSET 18.000004 -0.000000 0.000000
                    CHANNELS 3 Zrotation Xrotation Yrotation
                    JOINT LeftElbow
                    {
                        OFFSET 21.585543 0.000000 0.000000
                        CHANNELS 3 Zrotation Xrotation Yrotation
                        JOINT LeftWrist
                        {
                            OFFSET 21.310946 0.000000 0.000000
                            CHANNELS 3 Zrotation Xrotation Yrotation
                            End Site
                            {
                                OFFSET 0.000000 -13.500002 0.000000
                            }
                        }
                    }
                }
            }
            JOINT RightCollar
            {
                OFFSET -0.000000 21.060717 0.000000
                CHANNELS 3 Zrotation Xrotation Yrotation
                JOINT RightShoulder
                {
                    OFFSET -18.000004 0.000000 0.000000
                    CHANNELS 3 Zrotation Xrotation Yrotation
                    JOINT RightElbow
                    {
                        OFFSET -21.585543 0.000000 0.000000
                        CHANNELS 3 Zrotation Xrotation Yrotation
                        JOINT RightWrist
                        {
                            OFFSET -21.310946 0.000000 0.000000
                            CHANNELS 3 Zrotation Xrotation Yrotation
                            End Site
                            {
                                OFFSET -0.000000 -13.500002 0.000000
                            }
                        }
                    }
                }
            }
        }
    JOINT LeftHip
    {
        OFFSET 10.800001 0.000000 0.000000
        CHANNELS 3 Zrotation Xrotation Yrotation
        JOINT LeftKnee
        {
            OFFSET -0.000000 -36.918850 0.000000
            CHANNELS 3 Zrotation Xrotation Yrotation
            JOINT LeftAnkle
            {
                OFFSET -0.000000 -34.060452 0.000000
                CHANNELS 3 Zrotation Xrotation Yrotation
                End Site
                {
                    OFFSET -0.000000 -4.500001 15.300010
                }
            }
        }
    }
    JOINT RightHip
    {
        OFFSET -10.800001 0.000000 0.000000
        CHANNELS 3 Zrotation Xrotation Yrotation
        JOINT RightKnee
        {
            OFFSET -0.000000 -36.918850 0.000000
            CHANNELS 3 Zrotation Xrotation Yrotation
            JOINT RightAnkle
            {
                OFFSET -0.000000 -34.060452 0.000000
                CHANNELS 3 Zrotation Xrotation Yrotation
                End Site
                {
                    OFFSET -0.000000 -4.500001 15.300010
                }
            }
        }
    }
}
MOTION
Frames:    9
Frame Time:    0.010000
130.893860    77.139954    -127.586327    1.211885    -0.322352    -67.170448    3.278197    10.627334    -9.119151    11.463397    8.352336    11.103701    -18.209574    -5.773425    11.798717    -22.668816    2.492554    -12.291098    -7.623726    36.806225    -70.350586    34.555756    -21.280888    -62.329224    139.898132    -1.979539    11.694085    12.009928    -2.112035    -19.620323    31.686403    51.640137    38.596409    -31.685646    -21.876299    68.446732    -136.203033    -10.327558    -39.649529    -7.457142    -0.144802    1.424644    0.449745    22.556845    9.891392    -1.227165    -21.868534    5.023362    1.749583    -28.222357    11.528825    -6.835883    21.882143    9.326981    8.312286    5.097037    14.244831    
131.142548    77.161621    -127.550362    1.000348    -0.416120    -67.868263    2.553396    10.439272    -8.922735    11.774738    13.577788    12.838334    -18.925200    -11.352719    12.535606    -22.981209    2.206576    -9.160577    -7.609653    36.815231    -69.412132    36.114632    -22.371653    -60.837715    141.102509    -4.104914    10.057093    12.202693    -1.854198    -14.436379    33.682701    51.805225    35.851196    -30.972540    -21.019100    68.324287    -137.192383    -9.706366    -39.653622    -7.676457    0.419453    1.317827    0.317426    21.656933    10.922659    -1.143064    -21.496408    4.824887    1.995230    -28.325468    11.995373    -7.137042    21.553545    9.330943    9.176264    6.271367    15.361023    
131.300064    77.195763    -127.458397    0.899126    -0.347945    -68.327049    2.599331    10.386127    -8.879997    11.830576    14.198362    12.888513    -19.121281    -11.683891    12.399429    -23.415920    2.058919    -8.890837    -7.720576    36.662144    -68.738914    35.809502    -21.786224    -61.560131    141.206375    -5.699855    7.882624    11.850485    -1.611904    -14.104941    35.970123    52.060009    33.355946    -32.383415    -22.641508    67.795174    -136.561111    -10.639033    -39.668724    -7.566798    0.396194    1.185963    -0.174180    21.670692    11.149373    -0.763858    -21.526953    5.364357    1.899166    -28.590874    11.787450    -6.895241    21.687431    9.604948    9.606097    6.257234    15.783205    
131.438538    77.231987    -127.410439    0.766926    -0.315759    -68.725937    2.603891    10.486092    -8.875913    12.182586    14.512444    12.949063    -19.914267    -11.778247    12.448024    -23.483139    1.945947    -8.771050    -7.613938    36.807522    -68.695244    35.919281    -21.856833    -61.523808    141.497818    -7.241696    6.275598    11.680288    -1.507745    -14.231338    36.608227    52.023487    32.882908    -33.398853    -23.133343    67.123260    -136.687439    -10.352520    -40.022453    -7.558517    0.617306    1.152569    -0.382173    21.338074    11.474237    -0.532668    -21.410603    5.549520    1.947160    -28.696690    11.779765    -6.878292    21.593063    9.675701    10.158006    6.699303    16.340939    
131.581665    77.277687    -127.353943    0.612073    -0.255701    -69.154533    2.651398    10.576970    -8.914701    12.574684    14.895624    13.035906    -20.825977    -11.889596    12.516669    -23.561268    1.870632    -8.575955    -7.469914    36.914913    -68.645607    36.106052    -21.995098    -61.439739    141.718613    -9.001760    4.487172    11.500929    -1.426746    -14.332064    37.369537    51.939983    32.187447    -34.431011    -23.581173    66.449417    -136.938065    -9.912390    -40.395641    -7.529513    0.886964    1.145747    -0.585634    20.938957    11.783442    -0.254914    -21.275492    5.752098    2.009958    -28.808483    11.729438    -6.859061    21.474474    9.740274    10.843080    7.245833    16.971161    
131.718185    77.331253    -127.288948    0.439788    -0.164128    -69.590057    2.757923    10.649772    -9.019921    12.961890    15.289605    13.140740    -21.764950    -11.935506    12.611747    -23.651194    1.803969    -8.298719    -7.333033    37.016155    -68.555824    36.351997    -22.148422    -61.340832    141.869339    -10.886410    2.602057    11.312615    -1.424167    -14.414400    38.271324    51.805897    31.245003    -35.541519    -24.071562    65.747505    -137.188873    -9.425933    -40.789604    -7.480361    1.202518    1.178974    -0.759016    20.478067    12.056417    0.051782    -21.122641    5.948692    2.088630    -28.921587    11.639562    -6.839617    21.337090    9.787502    11.597955    7.868262    17.666313    
131.837891    77.390465    -127.216110    0.258090    -0.039914    -70.009758    2.932747    10.693930    -9.207701    13.287149    15.650522    13.256167    -22.609547    -11.842734    12.742035    -23.751822    1.738381    -7.930947    -7.253196    37.114433    -68.383430    36.601292    -22.284636    -61.274178    141.987457    -12.796647    0.677383    11.150662    -1.417867    -14.460171    39.220806    51.492622    30.087242    -36.493973    -24.404470    65.195923    -137.648102    -8.698066    -41.171951    -7.414256    1.555983    1.256411    -0.881999    19.966198    12.282215    0.365637    -20.955027    6.117328    2.181049    -29.032499    11.521959    -6.820557    21.187740    9.817322    12.326687    8.508712    18.415365    
131.932938    77.452866    -127.136398    0.077818    0.114374    -70.392624    3.177060    10.703148    -9.482298    13.499268    15.938418    13.370863    -23.244633    -11.556272    12.908725    -23.861963    1.661800    -7.483389    -7.265171    37.209023    -68.097672    36.812920    -22.394812    -61.269627    142.070389    -14.697638    -1.254772    11.025847    -1.406117    -14.462824    40.175922    50.964500    28.764824    -37.283794    -24.659948    64.796707    -138.179871    -7.886028    -41.498505    -7.337375    1.934299    1.368857    -0.943666    19.418516    12.460523    0.665748    -20.777273    6.243966    2.279899    -29.140064    11.394612    -6.800759    21.032919    9.838564    12.934685    9.093966    19.196938    
131.997986    77.515846    -127.051010    -0.089693    0.293158    -70.720657    3.482034    10.681544    -9.837197    13.572286    16.115492    13.477140    -23.597807    -11.048256    13.110244    -23.972107    1.576067    -6.979704    -7.395565    37.277122    -67.673630    36.922752    -22.450056    -61.375610    142.131470    -16.548889    -3.204630    10.943819    -1.384992    -14.428313    41.082390    50.189178    27.340832    -37.853428    -24.816994    64.585129    -138.776093    -7.016573    -41.742702    -7.256104    2.321245    1.501322    -0.942355    18.854250    12.595679    0.934315    -20.596304    6.321241    2.374501    -29.244160    11.277817    -6.778522    20.877577    9.873194    13.365936    9.551195    19.961958    
